<svg width="19" height="16" viewBox="0 0 19 16" fill="none" xmlns="http://www.w3.org/2000/svg">
<path d="M18.6992 14.6738L1.17969 0.992188C1.0918 0.933594 0.974609 0.904297 0.886719 0.904297C0.710938 0.904297 0.59375 0.962891 0.505859 1.05078L0.212891 1.43164C0.154297 1.51953 0.0957031 1.60742 0.0957031 1.72461C0.0957031 1.87109 0.183594 2.01758 0.300781 2.07617L17.8203 15.7871C17.8789 15.8457 17.9961 15.875 18.084 15.875C18.2598 15.875 18.377 15.8164 18.4648 15.6992L18.7578 15.3477C18.8164 15.2598 18.875 15.1719 18.875 15.0547C18.875 14.9082 18.7871 14.7617 18.6992 14.6738ZM8.79688 5.18164L12.752 8.25781C12.6934 6.5 11.2578 5.09375 9.5 5.09375C9.26562 5.12305 9.03125 5.12305 8.79688 5.18164ZM10.1738 11.5977L6.21875 8.52148C6.27734 10.2793 7.71289 11.6562 9.5 11.6562C9.70508 11.6562 9.93945 11.6562 10.1738 11.5977ZM9.5 4.15625C12.3711 4.15625 15.0371 5.76758 16.4434 8.375C16.0918 9.04883 15.6816 9.63477 15.1543 10.1621L16.2676 11.0117C16.8828 10.3672 17.4102 9.63477 17.8203 8.81445C17.8789 8.69727 17.9375 8.55078 17.9375 8.4043C17.9375 8.22852 17.8789 8.08203 17.8203 7.96484C16.2383 4.85938 13.0742 2.75 9.5 2.75C8.41602 2.75 7.39062 2.95508 6.42383 3.30664L7.77148 4.39062C8.32812 4.24414 8.91406 4.15625 9.5 4.15625ZM9.5 12.5938C6.59961 12.5938 3.93359 10.9824 2.52734 8.375C2.87891 7.73047 3.28906 7.14453 3.81641 6.61719L2.70312 5.76758C2.08789 6.41211 1.56055 7.14453 1.15039 7.96484C1.0918 8.08203 1.0625 8.22852 1.0625 8.375C1.0625 8.55078 1.0918 8.69727 1.15039 8.81445C2.73242 11.9199 5.89648 14 9.5 14C10.5547 14 11.5801 13.7949 12.5469 13.4727L11.1992 12.3887C10.6426 12.5352 10.0566 12.5938 9.5 12.5938Z" fill="#B5B5B5"/>
</svg>
